HIERARCHY
ROOT hips_JNT
{
	OFFSET 0.000000 0.000000 0.000000
	CHANNELS 6 Xposition Yposition Zposition Zrotation Xrotation Yrotation
	JOINT spine_JNT
	{
		OFFSET -0.000424 -2.543419 9.319810
		CHANNELS 6 Xposition Yposition Zposition Zrotation Xrotation Yrotation
		JOINT spine1_JNT
		{
			OFFSET 0.000000 0.000046 10.873099
			CHANNELS 6 Xposition Yposition Zposition Zrotation Xrotation Yrotation
			JOINT spine2_JNT
			{
				OFFSET 0.000000 5.951161 12.426399
				CHANNELS 6 Xposition Yposition Zposition Zrotation Xrotation Yrotation
				JOINT neck_JNT
				{
					OFFSET 0.000000 1.460481 13.979698
					CHANNELS 6 Xposition Yposition Zposition Zrotation Xrotation Yrotation
					JOINT head_JNT
					{
						OFFSET 0.000000 -2.091499 5.870201
						CHANNELS 6 Xposition Yposition Zposition Zrotation Xrotation Yrotation
						End Site
						{
							OFFSET 0.000000 0.000000 0.099998
						}
					}
				}
				JOINT l_shoulder_JNT
				{
					OFFSET 4.399140 1.485011 12.861000
					CHANNELS 6 Xposition Yposition Zposition Zrotation Xrotation Yrotation
					JOINT l_arm_JNT
					{
						OFFSET 8.757349 0.049052 -2.311981
						CHANNELS 6 Xposition Yposition Zposition Zrotation Xrotation Yrotation
						JOINT l_forearm_JNT
						{
							OFFSET 26.900103 -0.000013 -0.000046
							CHANNELS 6 Xposition Yposition Zposition Zrotation Xrotation Yrotation
							JOINT l_hand_JNT
							{
								OFFSET 23.014801 0.000004 -0.000046
								CHANNELS 6 Xposition Yposition Zposition Zrotation Xrotation Yrotation
								JOINT l_handThumb1_JNT
								{
									OFFSET 3.629997 -2.130000 -0.779999
									CHANNELS 6 Xposition Yposition Zposition Zrotation Xrotation Yrotation
									JOINT l_handThumb2_JNT
									{
										OFFSET 3.551140 -2.240060 -2.118370
										CHANNELS 6 Xposition Yposition Zposition Zrotation Xrotation Yrotation
										JOINT l_handThumb3_JNT
										{
											OFFSET 2.159111 -0.963467 -1.116310
											CHANNELS 6 Xposition Yposition Zposition Zrotation Xrotation Yrotation
											End Site
											{
												OFFSET 0.000000 0.000000 0.099998
											}
										}
									}
								}
								JOINT l_handIndex1_JNT
								{
									OFFSET 10.514900 -2.197570 -0.041019
									CHANNELS 6 Xposition Yposition Zposition Zrotation Xrotation Yrotation
									JOINT l_handIndex2_JNT
									{
										OFFSET 2.751831 0.139054 -0.102867
										CHANNELS 6 Xposition Yposition Zposition Zrotation Xrotation Yrotation
										JOINT l_handIndex3_JNT
										{
											OFFSET 2.353012 0.090487 -0.073399
											CHANNELS 6 Xposition Yposition Zposition Zrotation Xrotation Yrotation
											End Site
											{
												OFFSET 0.000000 0.000000 0.099998
											}
										}
									}
								}
								JOINT l_handMiddle1_JNT
								{
									OFFSET 10.067101 -0.059573 0.139202
									CHANNELS 6 Xposition Yposition Zposition Zrotation Xrotation Yrotation
									JOINT l_handMiddle2_JNT
									{
										OFFSET 3.909027 0.119066 -0.288403
										CHANNELS 6 Xposition Yposition Zposition Zrotation Xrotation Yrotation
										JOINT l_handMiddle3_JNT
										{
											OFFSET 2.328400 0.059440 -0.019108
											CHANNELS 6 Xposition Yposition Zposition Zrotation Xrotation Yrotation
											End Site
											{
												OFFSET 0.000000 0.000000 0.099998
											}
										}
									}
								}
								JOINT l_handRing1_JNT
								{
									OFFSET 9.468109 1.809830 0.132240
									CHANNELS 6 Xposition Yposition Zposition Zrotation Xrotation Yrotation
									JOINT l_handRing2_JNT
									{
										OFFSET 3.281532 0.033937 -0.224052
										CHANNELS 6 Xposition Yposition Zposition Zrotation Xrotation Yrotation
										JOINT l_handRing3_JNT
										{
											OFFSET 2.245003 0.008389 -0.070213
											CHANNELS 6 Xposition Yposition Zposition Zrotation Xrotation Yrotation
											End Site
											{
												OFFSET 0.000000 0.000000 0.099998
											}
										}
									}
								}
								JOINT l_handPinky1_JNT
								{
									OFFSET 8.490768 3.584150 -0.077770
									CHANNELS 6 Xposition Yposition Zposition Zrotation Xrotation Yrotation
									JOINT l_handPinky2_JNT
									{
										OFFSET 2.532173 0.017040 -0.073074
										CHANNELS 6 Xposition Yposition Zposition Zrotation Xrotation Yrotation
										JOINT l_handPinky3_JNT
										{
											OFFSET 1.951210 -0.017009 0.025116
											CHANNELS 6 Xposition Yposition Zposition Zrotation Xrotation Yrotation
											End Site
											{
												OFFSET 0.000000 0.000000 0.099998
											}
										}
									}
								}
							}
						}
					}
				}
				JOINT r_shoulder_JNT
				{
					OFFSET -4.397820 1.485011 12.860600
					CHANNELS 6 Xposition Yposition Zposition Zrotation Xrotation Yrotation
					JOINT r_arm_JNT
					{
						OFFSET -8.757320 0.049050 -2.312000
						CHANNELS 6 Xposition Yposition Zposition Zrotation Xrotation Yrotation
						JOINT r_forearm_JNT
						{
							OFFSET -26.900000 -0.000010 0.000000
							CHANNELS 6 Xposition Yposition Zposition Zrotation Xrotation Yrotation
							JOINT r_hand_JNT
							{
								OFFSET -23.014900 0.000000 0.000000
								CHANNELS 6 Xposition Yposition Zposition Zrotation Xrotation Yrotation
								JOINT r_handThumb1_JNT
								{
									OFFSET -3.629997 -2.130000 -0.779999
									CHANNELS 6 Xposition Yposition Zposition Zrotation Xrotation Yrotation
									JOINT r_handThumb2_JNT
									{
										OFFSET -3.551201 -2.240060 -2.118000
										CHANNELS 6 Xposition Yposition Zposition Zrotation Xrotation Yrotation
										JOINT r_handThumb3_JNT
										{
											OFFSET -2.159103 -0.963467 -1.116001
											CHANNELS 6 Xposition Yposition Zposition Zrotation Xrotation Yrotation
											End Site
											{
												OFFSET 0.000000 0.000000 0.099998
											}
										}
									}
								}
								JOINT r_handIndex1_JNT
								{
									OFFSET -10.514900 -2.197560 -0.040997
									CHANNELS 6 Xposition Yposition Zposition Zrotation Xrotation Yrotation
									JOINT r_handIndex2_JNT
									{
										OFFSET -2.751801 0.139050 -0.102997
										CHANNELS 6 Xposition Yposition Zposition Zrotation Xrotation Yrotation
										JOINT r_handIndex3_JNT
										{
											OFFSET -2.352997 0.090490 -0.073006
											CHANNELS 6 Xposition Yposition Zposition Zrotation Xrotation Yrotation
											End Site
											{
												OFFSET 0.000000 0.000000 0.099998
											}
										}
									}
								}
								JOINT r_handMiddle1_JNT
								{
									OFFSET -10.067101 -0.059570 0.139999
									CHANNELS 6 Xposition Yposition Zposition Zrotation Xrotation Yrotation
									JOINT r_handMiddle2_JNT
									{
										OFFSET -3.909103 0.119070 -0.288998
										CHANNELS 6 Xposition Yposition Zposition Zrotation Xrotation Yrotation
										JOINT r_handMiddle3_JNT
										{
											OFFSET -2.328400 0.059440 -0.019001
											CHANNELS 6 Xposition Yposition Zposition Zrotation Xrotation Yrotation
											End Site
											{
												OFFSET 0.000000 0.000000 0.099998
											}
										}
									}
								}
								JOINT r_handRing1_JNT
								{
									OFFSET -9.468102 1.809830 0.133003
									CHANNELS 6 Xposition Yposition Zposition Zrotation Xrotation Yrotation
									JOINT r_handRing2_JNT
									{
										OFFSET -3.281601 0.033939 -0.224995
										CHANNELS 6 Xposition Yposition Zposition Zrotation Xrotation Yrotation
										JOINT r_handRing3_JNT
										{
											OFFSET -2.245003 0.008390 -0.070000
											CHANNELS 6 Xposition Yposition Zposition Zrotation Xrotation Yrotation
											End Site
											{
												OFFSET 0.000000 0.000000 0.099998
											}
										}
									}
								}
								JOINT r_handPinky1_JNT
								{
									OFFSET -8.490799 3.584149 -0.076996
									CHANNELS 6 Xposition Yposition Zposition Zrotation Xrotation Yrotation
									JOINT r_handPinky2_JNT
									{
										OFFSET -2.532204 0.017040 -0.074005
										CHANNELS 6 Xposition Yposition Zposition Zrotation Xrotation Yrotation
										JOINT r_handPinky3_JNT
										{
											OFFSET -1.951202 -0.017010 0.026001
											CHANNELS 6 Xposition Yposition Zposition Zrotation Xrotation Yrotation
											End Site
											{
												OFFSET 0.000000 0.000000 0.099998
											}
										}
									}
								}
							}
						}
					}
				}
			}
		}
	}
	JOINT l_upleg_JNT
	{
		OFFSET 10.061400 0.706233 -5.185750
		CHANNELS 6 Xposition Yposition Zposition Zrotation Xrotation Yrotation
		JOINT l_leg_JNT
		{
			OFFSET -0.348572 0.819165 -45.582401
			CHANNELS 6 Xposition Yposition Zposition Zrotation Xrotation Yrotation
			JOINT l_foot_JNT
			{
				OFFSET 0.349145 1.708487 -42.332497
				CHANNELS 6 Xposition Yposition Zposition Zrotation Xrotation Yrotation
				JOINT l_toebase_JNT
				{
					OFFSET 0.070271 -12.888700 -8.126663
					CHANNELS 6 Xposition Yposition Zposition Zrotation Xrotation Yrotation
					End Site
					{
						OFFSET 0.000000 0.000000 0.099998
					}
				}
			}
		}
	}
	JOINT r_upleg_JNT
	{
		OFFSET -10.061000 0.706233 -5.185770
		CHANNELS 6 Xposition Yposition Zposition Zrotation Xrotation Yrotation
		JOINT r_leg_JNT
		{
			OFFSET 0.348580 0.819162 -45.582405
			CHANNELS 6 Xposition Yposition Zposition Zrotation Xrotation Yrotation
			JOINT r_foot_JNT
			{
				OFFSET -0.349180 1.708487 -42.332504
				CHANNELS 6 Xposition Yposition Zposition Zrotation Xrotation Yrotation
				JOINT r_toebase_JNT
				{
					OFFSET -0.070200 -12.888700 -8.126663
					CHANNELS 6 Xposition Yposition Zposition Zrotation Xrotation Yrotation
					End Site
					{
						OFFSET 0.000000 0.000000 0.099998
					}
				}
			}
		}
	}
}
MOTION
Frames: 4
Frame Time: 0.041667
12.240000 4.898670 93.984436 19.392893 5.068210 0.622396 -0.000421 -2.543413 9.319811 -0.001829 -0.015871 -6.587262 -0.000001 0.000047 10.873107 0.055956 0.000002 -0.000000 0.000002 5.951159 12.426404 11.766498 -0.129546 -1.998854 -0.000000 1.460484 13.979696 -3.398705 -2.725221 -4.470800 -0.000001 -2.091506 5.870198 1.476176 14.527141 -7.181199 4.399139 1.485014 12.861015 0.000000 -0.000000 -0.000003 8.757338 0.049052 -2.312000 -50.616995 -34.515224 12.047982 26.900114 -0.000010 -0.000033 -84.730191 1.704343 -1.868725 23.014801 0.000010 -0.000049 4.360845 18.584950 -65.645891 3.629995 -2.130003 -0.779992 5.838931 -2.554074 -5.747129 3.551106 -2.240055 -2.118374 -2.045276 -4.248598 -7.670736 2.159107 -0.963463 -1.116295 61.096076 18.817948 -23.269686 10.514897 -2.197575 -0.041011 2.429859 3.938505 54.532015 2.751837 0.139049 -0.102857 -1.864005 1.547012 63.361295 2.353001 0.090490 -0.073392 0.036043 0.400716 9.939910 10.067107 -0.059572 0.139197 -0.510564 0.766376 57.438380 3.909031 0.119061 -0.288388 -1.094000 0.483180 59.873869 2.328402 0.059439 -0.019092 0.067069 0.208202 10.734307 9.468108 1.809826 0.132249 -5.017592 -3.285799 59.455451 3.281517 0.033939 -0.224048 -0.260906 -0.129093 23.536678 2.244992 0.008390 -0.070223 -0.268838 -0.136612 24.699660 8.490774 3.584142 -0.077765 -5.693734 -7.866471 62.898604 2.532174 0.017042 -0.073091 0.000002 -0.000000 0.000001 1.951231 -0.016996 0.025116 0.000001 0.000000 0.000000 -4.397821 1.485013 12.860603 -0.000001 -0.000001 0.000001 -8.757316 0.049047 -2.312007 109.230571 -39.580304 -13.090833 -26.900002 0.000003 0.000011 38.963180 5.153363 14.499402 -23.014921 0.000012 0.000011 45.888807 -38.289573 33.063194 -3.629970 -2.130005 -0.780001 -10.553102 1.213345 3.924881 -3.551184 -2.240048 -2.118000 -2.976832 -1.520371 7.222286 -2.159099 -0.963464 -1.115995 -41.526334 16.010385 13.970676 -10.514883 -2.197564 -0.040987 -13.397247 9.933056 -55.830270 -2.751797 0.139048 -0.103017 0.000001 0.000001 0.000002 -2.353013 0.090484 -0.073017 -0.000002 0.000001 -0.000003 -10.067108 -0.059579 0.139997 -14.136222 9.019698 -58.103381 -3.909105 0.119079 -0.288990 0.225325 0.217087 -14.642409 -2.328389 0.059456 -0.019018 0.227395 0.211543 -14.351812 -9.468103 1.809833 0.133008 -14.674731 8.511392 -61.059671 -3.281610 0.033945 -0.225010 0.553011 -0.927814 -89.990379 -2.244994 0.008399 -0.069982 0.569515 -0.842972 -83.472807 -8.490782 3.584150 -0.076985 -16.902172 6.615605 -68.689389 -2.532209 0.017041 -0.074008 -2.741267 -4.105146 -90.190565 -1.951197 -0.017012 0.026016 -1.116489 -3.171962 -58.009555 10.061401 0.706239 -5.185744 -16.775412 -17.287591 -24.562448 -0.348572 0.819162 -45.582382 0.262633 25.735676 0.348835 0.349138 1.708496 -42.332504 -2.149924 -6.816901 14.364475 0.070271 -12.888701 -8.126666 -0.714346 -6.165130 -0.038350 -10.060997 0.706240 -5.185767 33.501822 -52.474895 41.488881 0.348585 0.819169 -45.582390 -106.533261 86.625677 109.740690 -0.349180 1.708488 -42.332504 0.055952 0.000003 0.000002 -0.070198 -12.888700 -8.126657 -0.000001 0.000003 -0.000001 
12.339600 5.086441 93.975830 19.630647 5.040730 0.945241 -0.000425 -2.543425 9.319818 -0.001695 -0.014347 -6.740943 0.000000 0.000047 10.873105 0.000000 0.000000 -0.000000 0.000001 5.951154 12.426394 11.879928 -0.132985 -1.907786 -0.000002 1.460484 13.979681 -3.108513 -3.639237 -4.069939 0.000002 -2.091500 5.870194 1.409775 14.340489 -6.935041 4.399139 1.485013 12.861008 0.000004 0.000000 -0.000003 8.757345 0.049054 -2.311991 -51.429012 -34.578287 10.805632 26.900108 -0.000014 -0.000031 -84.158797 1.797361 -1.990553 23.014807 0.000010 -0.000065 4.695189 17.316442 -64.780246 3.630006 -2.130001 -0.779999 5.923602 -2.720081 -5.966513 3.551123 -2.240058 -2.118368 -1.496112 -4.047584 -7.853303 2.159127 -0.963475 -1.116313 60.556662 18.780677 -23.007468 10.514906 -2.197572 -0.041017 2.588707 3.938658 53.571503 2.751815 0.139052 -0.102867 -2.020947 1.565649 67.304377 2.353018 0.090489 -0.073394 -0.286421 0.559589 15.625586 10.067105 -0.059578 0.139202 -0.156047 0.948931 56.722559 3.909029 0.119068 -0.288385 -1.127566 0.609319 64.680717 2.328399 0.059438 -0.019113 -0.210260 0.250784 16.337514 9.468125 1.809829 0.132236 -4.351994 -2.881661 59.204974 3.281531 0.033938 -0.224050 -0.307905 -0.169918 28.639337 2.245001 0.008379 -0.070217 -0.408989 -0.287604 41.016198 8.490770 3.584146 -0.077773 -4.329503 -7.072494 63.212287 2.532173 0.017035 -0.073087 -0.000006 0.000000 -0.000002 1.951236 -0.017010 0.025141 -0.000001 0.000000 0.000004 -4.397823 1.485012 12.860600 0.000002 -0.000000 0.000001 -8.757321 0.049051 -2.312002 109.916957 -39.593142 -12.690973 -26.900003 0.000007 -0.000022 38.434178 5.253733 14.996512 -23.014912 0.000002 0.000011 46.629824 -38.367123 34.024328 -3.629984 -2.130002 -0.779997 -9.520713 1.106220 3.554129 -3.551192 -2.240058 -2.117996 -2.375581 -1.877709 7.328099 -2.159107 -0.963476 -1.116009 -41.803954 16.073428 14.093925 -10.514885 -2.197567 -0.040972 -13.344208 10.086470 -56.704289 -2.751813 0.139048 -0.102997 -0.000004 0.000001 0.000003 -2.352998 0.090500 -0.073005 0.000002 -0.000001 0.000003 -10.067096 -0.059567 0.140001 -14.087372 9.201426 -59.240198 -3.909110 0.119082 -0.288980 0.163625 0.161445 -10.572050 -2.328384 0.059452 -0.018987 0.143303 0.161570 -10.359690 -9.468099 1.809836 0.133008 -14.655392 8.659630 -62.013241 -3.281612 0.033950 -0.224991 0.553014 -0.927819 -89.990386 -2.245009 0.008385 -0.069982 0.567608 -0.854628 -84.427661 -8.490803 3.584138 -0.076979 -16.930379 6.711895 -69.306729 -2.532206 0.017043 -0.074000 -2.741267 -4.105146 -90.190565 -1.951184 -0.017005 0.026018 -1.125445 -3.179987 -58.215041 10.061400 0.706227 -5.185750 -18.040034 -19.404521 -24.827611 -0.348571 0.819161 -45.582394 0.353667 29.824748 0.284270 0.349144 1.708494 -42.332493 -2.029695 -5.647329 10.552247 0.070274 -12.888705 -8.126674 -1.158206 -8.714681 -0.088042 -10.061003 0.706226 -5.185775 34.762787 -53.148386 41.983267 0.348582 0.819165 -45.582390 -129.713202 86.310942 132.493895 -0.349177 1.708487 -42.332497 0.000000 0.000002 -0.000004 -0.070199 -12.888700 -8.126647 0.000001 -0.000003 0.000001 
12.345901 5.047085 93.967438 19.830302 5.062704 1.251914 -0.000424 -2.543431 9.319802 0.037658 -0.018162 -6.904885 0.000002 0.000047 10.873103 -0.000001 0.000002 0.000001 0.000004 5.951162 12.426408 12.101369 -0.137143 -1.805410 0.000000 1.460482 13.979705 -2.811038 -4.392805 -3.668941 -0.000001 -2.091499 5.870212 1.405252 14.058715 -6.984300 4.399138 1.485010 12.861004 0.000001 0.000000 -0.000003 8.757353 0.049054 -2.311966 -52.318112 -34.653474 9.548253 26.900106 -0.000015 -0.000029 -83.555596 1.871791 -2.095060 23.014801 0.000009 -0.000059 5.170285 15.582867 -63.738540 3.630009 -2.129997 -0.780000 5.783093 -2.860760 -6.060621 3.551118 -2.240066 -2.118383 -0.426029 -3.773104 -8.133303 2.159101 -0.963466 -1.116308 59.968050 18.737200 -22.721538 10.514935 -2.197566 -0.041020 2.516042 3.842448 52.869380 2.751815 0.139046 -0.102875 -2.250384 1.567698 72.982928 2.353023 0.090486 -0.073402 -0.167469 0.784824 20.060689 10.067122 -0.059572 0.139200 0.047662 1.047720 56.177906 3.909024 0.119058 -0.288390 -1.329641 0.445237 71.488749 2.328402 0.059434 -0.019113 -0.300353 0.303186 20.895890 9.468127 1.809831 0.132243 -3.705917 -2.500584 59.107433 3.281526 0.033939 -0.224034 -0.429290 -0.320017 44.222729 2.245002 0.008392 -0.070212 -0.447336 -0.352422 47.315169 8.490805 3.584150 -0.077778 -2.771771 -6.165835 63.659556 2.532172 0.017042 -0.073105 0.000001 -0.000001 0.000003 1.951228 -0.017010 0.025114 -0.000001 0.000001 -0.000004 -4.397822 1.485010 12.860603 0.000001 0.000001 0.000000 -8.757310 0.049053 -2.311999 110.707067 -39.562092 -12.238163 -26.899996 0.000022 -0.000021 37.761281 5.360690 15.589114 -23.014904 0.000001 -0.000007 46.869895 -38.460611 33.918108 -3.630012 -2.130000 -0.780002 -8.642892 1.177648 3.069007 -3.551184 -2.240050 -2.118002 -1.960171 -2.155695 7.477138 -2.159108 -0.963463 -1.116004 -41.864313 16.087153 14.120828 -10.514891 -2.197561 -0.040983 -13.057513 10.084292 -57.459301 -2.751824 0.139044 -0.102988 -0.000005 0.000002 -0.000002 -2.352992 0.090470 -0.072994 -0.000002 0.000001 0.000003 -10.067110 -0.059567 0.140003 -13.950748 9.284650 -60.122037 -3.909104 0.119056 -0.288996 0.113762 0.119595 -7.611953 -2.328390 0.059441 -0.018987 0.095437 0.119408 -7.457804 -9.468121 1.809834 0.133002 -14.641217 8.777855 -62.764999 -3.281620 0.033923 -0.224988 0.553011 -0.927815 -89.990379 -2.245001 0.008395 -0.069977 0.566120 -0.864449 -85.156920 -8.490807 3.584150 -0.076984 -16.954732 6.792392 -69.810407 -2.532206 0.017037 -0.074033 -2.741265 -4.105144 -90.190558 -1.951195 -0.017010 0.026010 -1.126448 -3.181333 -58.242130 10.061402 0.706222 -5.185755 -19.136508 -20.982619 -25.092291 -0.348572 0.819170 -45.582397 0.408896 32.934277 0.236570 0.349143 1.708493 -42.332497 -1.651515 -4.139306 6.795633 0.070271 -12.888701 -8.126671 -1.768920 -11.189304 -0.173092 -10.060999 0.706221 -5.185779 35.868206 -53.562296 42.582107 0.348587 0.819175 -45.582390 -143.839891 85.833519 146.227820 -0.349178 1.708491 -42.332493 -0.000003 0.000027 0.000006 -0.070199 -12.888700 -8.126663 0.000000 0.000001 0.000004 
12.279700 4.772934 93.971237 19.995596 5.136531 1.523590 -0.000425 -2.543419 9.319805 0.037741 -0.017188 -7.067252 -0.000000 0.000045 10.873101 0.000000 0.000003 0.000001 0.000001 5.951165 12.426395 12.430693 -0.142948 -1.694629 0.000003 1.460482 13.979707 -2.507889 -4.984915 -3.262594 0.000004 -2.091496 5.870196 1.450076 13.706149 -7.316076 4.399139 1.485011 12.860992 -0.000002 0.000001 -0.000001 8.757346 0.049054 -2.311992 -53.250658 -34.752395 8.334862 26.900110 -0.000010 -0.000065 -82.953802 1.915422 -2.166665 23.014797 0.000009 -0.000058 5.737458 13.559810 -62.571670 3.629978 -2.129998 -0.779996 5.385710 -2.935433 -5.971505 3.551140 -2.240051 -2.118370 0.525267 -3.336341 -8.571169 2.159127 -0.963482 -1.116313 59.321866 18.686337 -22.408179 10.514896 -2.197570 -0.041017 2.181400 3.650246 52.562329 2.751815 0.139054 -0.102874 -2.438625 1.556309 77.684413 2.353006 0.090482 -0.073384 -0.512551 0.829211 24.348684 10.067082 -0.059571 0.139203 0.071003 1.054673 55.924899 3.909037 0.119065 -0.288388 -1.431943 0.401619 76.490476 2.328392 0.059438 -0.019088 -0.395814 0.362968 26.322115 9.468109 1.809833 0.132245 -3.113094 -2.162206 59.250115 3.281527 0.033937 -0.224041 -0.491050 -0.451789 56.074538 2.244992 0.008384 -0.070201 -0.475502 -0.410891 52.474571 8.490772 3.584150 -0.077771 -1.067791 -5.167351 64.253994 2.532173 0.017038 -0.073094 -0.000002 0.000001 0.000000 1.951210 -0.017004 0.025089 0.000000 -0.000000 0.000003 -4.397821 1.485011 12.860596 -0.000002 0.000001 0.000001 -8.757325 0.049052 -2.312014 111.572001 -39.498031 -11.747983 -26.899994 -0.000011 0.000002 36.953178 5.469422 16.270817 -23.014898 0.000010 -0.000000 47.012571 -38.563187 33.547318 -3.629997 -2.130009 -0.779997 -7.874985 1.374305 2.499022 -3.551190 -2.240056 -2.117994 -1.675703 -2.376338 7.656150 -2.159115 -0.963471 -1.116001 -41.769257 16.065594 14.078503 -10.514908 -2.197573 -0.040980 -12.606143 9.967134 -58.127505 -2.751821 0.139055 -0.102994 -0.000000 -0.000000 -0.000001 -2.352997 0.090497 -0.073006 0.000001 0.000000 0.000003 -10.067113 -0.059573 0.140003 -13.752972 9.295902 -60.820273 -3.909089 0.119067 -0.288998 0.077243 0.087778 -5.467582 -2.328390 0.059423 -0.019009 0.048056 0.088642 -5.356155 -9.468110 1.809831 0.132991 -14.631368 8.874998 -63.371731 -3.281612 0.033953 -0.225013 0.553014 -0.927812 -89.990386 -2.245015 0.008395 -0.069999 0.564931 -0.872906 -85.724058 -8.490813 3.584145 -0.076982 -16.976386 6.861106 -70.232725 -2.532209 0.017056 -0.074010 -2.741266 -4.105142 -90.190558 -1.951220 -0.017018 0.026006 -1.122422 -3.176831 -58.141746 10.061400 0.706232 -5.185743 -20.068575 -22.133920 -25.317703 -0.348566 0.819155 -45.582397 0.409883 35.295696 0.222474 0.349150 1.708493 -42.332497 -1.041189 -2.424658 3.065965 0.070270 -12.888705 -8.126665 -2.550030 -13.584100 -0.303647 -10.061002 0.706232 -5.185767 36.808163 -53.642844 43.293376 0.348588 0.819170 -45.582394 -151.353126 85.554082 153.415351 -0.349185 1.708489 -42.332504 0.000003 0.000007 -0.000012 -0.070196 -12.888700 -8.126654 -0.000001 -0.000005 0.000005 
